<svg width="20" height="20" viewBox="0 0 20 20" fill="none" xmlns="http://www.w3.org/2000/svg">
<path fill-rule="evenodd" clip-rule="evenodd" d="M4.16602 1.66699C3.50297 1.66699 2.86709 1.93038 2.39825 2.39923C1.92941 2.86807 1.66602 3.50395 1.66602 4.16699V15.8337C1.66602 16.4967 1.92941 17.1326 2.39825 17.6014C2.86709 18.0703 3.50297 18.3337 4.16602 18.3337H11.666V14.167C11.666 13.504 11.9294 12.8681 12.3982 12.3992C12.8671 11.9304 13.503 11.667 14.166 11.667H18.3327V4.16699C18.3327 3.50395 18.0693 2.86807 17.6004 2.39923C17.1316 1.93038 16.4957 1.66699 15.8327 1.66699H4.16602ZM14.4102 17.6012C14.1106 17.9007 13.7398 18.1192 13.3327 18.2362V14.167C13.3327 13.946 13.4205 13.734 13.5768 13.5777C13.733 13.4215 13.945 13.3337 14.166 13.3337H18.2352C18.1182 13.7408 17.8997 14.1116 17.6002 14.4112L14.4102 17.6012ZM5.83268 5.00033C5.61167 5.00033 5.39971 5.08812 5.24343 5.2444C5.08715 5.40068 4.99935 5.61264 4.99935 5.83366C4.99935 6.05467 5.08715 6.26663 5.24343 6.42291C5.39971 6.57919 5.61167 6.66699 5.83268 6.66699H14.166C14.387 6.66699 14.599 6.57919 14.7553 6.42291C14.9116 6.26663 14.9993 6.05467 14.9993 5.83366C14.9993 5.61264 14.9116 5.40068 14.7553 5.2444C14.599 5.08812 14.387 5.00033 14.166 5.00033H5.83268ZM5.83268 8.33366C5.61167 8.33366 5.39971 8.42146 5.24343 8.57774C5.08715 8.73402 4.99935 8.94598 4.99935 9.16699C4.99935 9.38801 5.08715 9.59997 5.24343 9.75625C5.39971 9.91253 5.61167 10.0003 5.83268 10.0003H14.166C14.387 10.0003 14.599 9.91253 14.7553 9.75625C14.9116 9.59997 14.9993 9.38801 14.9993 9.16699C14.9993 8.94598 14.9116 8.73402 14.7553 8.57774C14.599 8.42146 14.387 8.33366 14.166 8.33366H5.83268ZM5.83268 11.667C5.61167 11.667 5.39971 11.7548 5.24343 11.9111C5.08715 12.0674 4.99935 12.2793 4.99935 12.5003C4.99935 12.7213 5.08715 12.9333 5.24343 13.0896C5.39971 13.2459 5.61167 13.3337 5.83268 13.3337H9.16602C9.38703 13.3337 9.59899 13.2459 9.75527 13.0896C9.91155 12.9333 9.99935 12.7213 9.99935 12.5003C9.99935 12.2793 9.91155 12.0674 9.75527 11.9111C9.59899 11.7548 9.38703 11.667 9.16602 11.667H5.83268Z" fill="white"/>
</svg>
